<svg xmlns="http://www.w3.org/2000/svg" viewBox="0 0 474.96 550.03"><defs><style>.cls-1{fill:#ff2600;}.cls-2{fill:#fdf600;}.cls-3{fill:#fff;}.cls-4{fill:#fdf700;}</style></defs><g id="Layer_2" data-name="Layer 2"><polygon points="81.47 265.15 40.66 296.66 17.98 349.05 12.2 385.61 31.41 393.6 31.41 407.09 12.2 432.11 4.59 447 9.94 470.74 29.2 491.16 93.06 519.21 169.56 540.11 223.81 543.67 263.94 541.8 310.42 526.54 381.14 475.14 424.26 448.67 425.13 417.61 396.72 396.49 411.55 384.81 449.51 375.4 459.86 349.03 454.95 336.4 467.05 325.17 451.6 303.8 411.55 311.15 428.99 273.44 418.65 256.25 389.35 283.78 379.53 240.28 406.37 195.03 410.22 145.29 399.88 93.89 363.92 42.79 322.52 18.23 264.1 17.33 189.57 12.09 132.57 14.55 87.31 52.43 57.32 113.23 52.06 183.32 65.92 230.11 90.65 268.7 81.47 265.15"/></g><g id="Layer_3" data-name="Layer 3"><polygon class="cls-1" points="113.8 291.06 136.1 306.6 143.68 315.6 169.31 332.13 186.06 341.09 198.05 355.17 191 376 150.98 382.29 67.57 385.37 18.13 388.47 13.4 371.27 28.87 322 68.64 266.79 82.83 267.87 113.8 291.06"/><polygon class="cls-1" points="380.46 246.61 396.13 277.41 420.75 259.01 431.91 268.31 403.39 317.7 457.12 305.92 467.05 325.17 453.61 342.08 454.85 362.54 430.48 381.55 387.81 386.51 357.8 387.1 342.57 379.41 326.82 365.44 322.97 352.13 331.7 318.93 353.07 285.73 371.4 253.34 380.46 246.61"/></g><g id="Layer_1" data-name="Layer 1"><path class="cls-2" d="M25.09,403.21c-12.49-4.65-15.45-9.53-14.45-22.74,1.55-20.72,8.92-39.82,15.91-59.07C31.78,307,38.73,293.64,49,282.19c7.5-8.39,16.07-15.4,27.13-18.82,4.41-1.36,5-3,2.18-6.31-13-15.38-20.26-33.66-25-52.79-12.78-52-5.55-101,25.61-145.2,20.37-28.92,47.89-47.84,83-54.73,20.2-4,39.76-2.37,58.08,8a7.11,7.11,0,0,0,5.38.2c17.76-6.67,35.43-6.74,53.13.18,1.47.57,3.45,1.35,4.67.83C300.62,6,318,9,334.92,14.55,369.92,26.24,393.61,50.82,408,84c20.86,48,18.74,95.55-5.37,142.08-2.36,4.57-4.42,9.31-6.51,14-.36.79-.63,2.14-.21,2.7,5.63,7.67,4.61,16.4,4.2,25.05a8.76,8.76,0,0,0,.42,1.6c4.09-4,7.71-8,11.91-11.29a28.06,28.06,0,0,1,10-5.17c5.84-1.55,12.26-2.56,16.31,3.62,4.39,6.69,6.41,14,2.08,21.63-3.45,6.08-7.3,11.93-10.76,18-1.77,3.12-3,6.52-4.54,9.8l1.22,1.66c3.45-1.51,7.11-2.66,10.32-4.58,9.34-5.59,18.87-6.37,28.46-1.22,15.5,8.34,17.06,27.7,3.3,38.64-.77.62-1.57,1.2-2.33,1.77,5.56,16.35,1.75,28.71-12.06,39.05A60,60,0,0,1,425,392.93c-2.95.36-5.89.81-10.07,1.39,1.61,2,2.38,3.68,3.68,4.45,24.2,14.3,31.11,53.85-1,75.78-9.35,6.39-19.61,10.51-30.48,13.38a10.75,10.75,0,0,0-5,2.76c-18.39,19.94-41.2,32.9-66.24,42.49-42.28,16.2-86.2,21.11-131,18.53-41.5-2.38-81.35-11.64-118.21-31.56-12-6.46-24.21-12.76-35.08-20.83C16.31,488,5.67,473,3.58,453.27c-1.52-14.36,3.47-26.85,11.71-38.22C18.26,410.93,21.76,407.2,25.09,403.21Zm208.09-13.39c-1.87,0-3.33.07-4.78,0-10.31-.54-20.64-1.89-30.92-1.52-24.43.86-48.9,1.85-73.24,4.1-18.81,1.74-37.56,5-55.39,11.78-15.95,6.09-31.07,13.6-42.92,26.43-12.7,13.75-14.22,30.25-2.22,44.59,6.15,7.36,14.31,13.38,22.43,18.67,13.32,8.68,28.71,12.7,43.71,17.69,29.78,9.89,59.54,19.67,90.62,24.7,25.13,4.06,50.38,7.86,75.87,5.41,10.77-1,21.92-3.25,31.76-7.55a105.56,105.56,0,0,0,47.26-40.22c6.58-10.37,14.32-14.45,25.82-16.39,16.56-2.79,32.37-8.6,46.14-18.87,18.84-14,19.58-31.92,1.74-47-10.5-8.87-22.84-14.4-36-17.43-14.11-3.24-27.72-6.75-37.07-19-1.06-1.41-3.17-2-4.26-3.41-2.4-3.08-5.57-6.16-6.46-9.73-3.71-15-2.33-29.2,5.52-43.18A894.43,894.43,0,0,1,381,239.74c25.6-36.12,33.43-75.8,22.68-118.42-10.82-42.91-36.51-73.94-78.3-90.64-15.36-6.15-30.62-9-46.11-.52a3.93,3.93,0,0,1-3.1-.18c-16.13-8-32.64-7.76-49.48-2.64a8.72,8.72,0,0,1-5.62-.09c-18.28-8.38-37.32-9.14-56.68-5.58C135.05,27.05,111.69,42.56,93.8,66,68,99.81,59.4,138.26,64.63,180.24c3.31,26.59,15.29,49.65,28.57,72.16,19.27,32.68,46.55,57.47,78.2,77.78,16.72,10.73,32.53,22.63,46.28,37C223.94,373.7,230,380.58,233.18,389.82ZM66.77,368.38c4.62,6.09,11.85,7.67,17.42,3.48A67,67,0,0,0,107,341.66c1.65-4.35,1.71-9.39-2.2-11.78-2.83-1.72-7.4-.8-11.18-.6-1.28.06-2.68,1.32-3.71,2.35-7.62,7.58-15.3,15.12-22.64,23-2.53,2.7-5,4.58-8.59,3.24s-3.42-4.88-3.3-8.09c.65-17.33,7.77-32.45,16.54-46.88,1-1.56,4.74-2.67,6.63-2.09,3.46,1.06,4.12,4.61,3.16,7.91-.6,2-2.12,3.74-3,5.7-2.22,5-4.53,10-6.33,15.1-.48,1.39.73,3.37,1.16,5.07,1.45-.49,3.21-.63,4.28-1.56a42.17,42.17,0,0,0,5.36-5.89c6.93-8.74,14.31-17.49,16.15-28.8,2.28-14-2.9-23.45-19.91-19.09-9,2.31-15.82,8.9-20.72,16.42A418.08,418.08,0,0,0,35,335.94c-6.58,13.19-11.22,27.32-11,42.48.09,7.4,5.29,11.09,12.31,8.4a59.06,59.06,0,0,0,10.23-5C53.38,377.49,60,372.86,66.77,368.38Zm359.4-97.72-1.8-1.27c-23.38,21.36-43,46.41-65.93,70,3.57-10.62,6.82-20,9.85-29.43,5.32-16.55,10.61-33.11,15.56-49.77.52-1.74-1.26-4.17-2-6.28-1.71,1.21-4.2,2-5,3.69Q355,300.89,333.54,344.4A63.26,63.26,0,0,0,329,357.92c-1.09,4.68,1.1,8.42,5.16,10.89,3.81,2.32,7.29,1.27,10.51-1.35l4.34-3.57c-2.59,12-1.32,21,11.06,23.83,4.65,1,10.73-1.55,13.12-5.68L366,378c.12-1.21.26-2.82.45-4.43,1.67-14,8.85-25.62,16.33-37,13.54-20.52,27.51-40.76,41.23-61.15a31.26,31.26,0,0,0,2.15-4.8Zm9.72,66c-4.95,8.27-9.49,16-14.16,23.63-2.39,3.91-5.6,6.44-11.22,5.24a43.18,43.18,0,0,1,1.88-4.81c3.05-5.7,6.11-11.4,9.33-17,2.23-3.88,1-6.76-3.4-6.64-3.66.1-7.29,1.18-11.83,2-.58-.28-2.26-1.64-4.07-1.84-5.92-.64-11.28,1.66-14.4,6.34a127.64,127.64,0,0,0-11.95,22.09c-3.68,9,1.14,12.22,9,13.75,2.51.5,5.42-1.12,8.16-1.65,1.34-.26,3.33-.88,4-.25,4.11,4,8.89,3.26,12.95,1.11,5-2.62,8.89-3.13,14.48-.94,9.66,3.79,26.89-6.37,30.13-16.67.28-.91.07-2.63-.53-3a4.34,4.34,0,0,0-3.6-.42c-1.91.93-3.38,2.89-5.33,3.6-2.31.84-4.93.82-7.42,1.17.06-2.49,0-5,.25-7.48.1-.89,1-1.69,1.51-2.54,2.09-3.54,4.17-7.09,6.55-11.13ZM139.41,308.93c-3.12-1.38-5.9-2.37-8.45-3.78-3.15-1.74-4.62-.83-6,2.35-4.78,11.29-9.85,22.45-14.77,33.68-4.59,10.47-9.1,21-13.71,31.43-1.52,3.46-2.89,7,.09,10.19s6.45,1.53,9.62,0c13.52-6.54,24.19-15.41,27.24-31.3,1.67-8.69.54-11.31-8.29-13.15C129.88,328.64,134.55,319,139.41,308.93ZM198.79,360c-2.17-3.23-4.31-3.74-7.18-1.25a18.43,18.43,0,0,1-5.28,2.74,2.92,2.92,0,0,1-2.59-.17,2.85,2.85,0,0,1-.07-2.59,68.67,68.67,0,0,1,5.19-9c1.9-2.61,1.76-4.93-.89-6.14-3.56-1.62-7.53-3.34-11.29-3.26-3.42.06-7.89,1.54-10,4a266.08,266.08,0,0,0-19.05,25.4c-3.16,4.75-1.36,9.53,3.11,9.67,4,.13,8.14-2,12.25-2.16s9.12,2.38,12.64,1C184.87,374.56,193.53,369.42,198.79,360Zm-64.42,22.12c4.41-8.12,8.18-15.87,12.74-23.13,2.36-3.76,5.93-6.84,9.26-9.89,4-3.67,8.49-6.85,12.49-10.54.86-.79,1.24-3.54.61-4.19a5.45,5.45,0,0,0-4.62-1.41c-2.1.68-3.92,2.35-5.7,3.79s-3.27,3-4.57,4.23c-1.62-2-3.12-4.9-3.91-4.72-2.14.5-4.92,1.85-5.79,3.66-6.08,12.59-11.73,25.38-17.62,38.32Zm318-67.65-18.58,10.86c3.14,2.69,5.63,6.58,7.93,6.47,6.64-.32,13.2-2.25,20.49-3.69Z" transform="translate(-3.31 -2.33)"/><path class="cls-2" d="M101.15,225c4.77-14.33,12.74-23.33,26.45-26.44,16-3.64,27.63,6.79,25.7,23.18-.11.92-.09,2.25.46,2.77,5.36,5.06,10.84,10,16.29,15l1.32-.79c-.42,2.57-.81,5.14-1.27,7.7s-.94,4.88-1.54,8l-31.08-25.14c-.37,1-.35.63-.14.44,5.64-5.17,6.61-10.49,2.73-15.15-4.49-5.4-13.7-6.53-19.49-2.4-4.87,3.49-7.24,9.19-5.93,14.27,1.68,6.49,6,10.36,12.54,11.1,1.32.15,2.84-.14,3.92.44,1.88,1,3.5,2.61.56,4.36-9.41,5.6-12.55,14-11,25.14-9.64-6.6-16.88-14.71-23.07-23.8-17.85-26.23-24.79-55.49-23.89-86.9.89-30.95,9.47-59.3,29.1-83.64,12.31-15.26,27.56-26.67,47.27-30.29,5.62-1,11.93-.19,17.57,1.22a271.42,271.42,0,0,1,27,8.74c7.78,2.82,12.65-.32,17.14-5.37a14.51,14.51,0,0,1,4.47-4,10.83,10.83,0,0,1-.22,3.31c-4.77,11.85-9.54,23.7-14.6,35.43-.6,1.4-2.83,2.45-4.5,2.84-.58.13-2.21-2.11-2.56-3.47C190,64.79,171.9,53.66,154.54,56.48c-25.84,4.19-41.81,20.62-53,42.55-5,9.81-8.18,20.56-12.57,31.85l8.79-1,.63,1.14c-1.63,1.69-3.29,3.36-4.89,5.09A50.6,50.6,0,0,0,89.22,141c-1.82,2.54-2.32,5.39.32,7.62,2.91,2.45,5.28.78,7.12-1.74,4.11-5.64,8.7-11,12.1-17.08C117.34,114.36,130,106.89,148,108a8.34,8.34,0,0,1,0-2.34,35,35,0,0,1,1.6-3.66c1.08.76,2.79,1.29,3.14,2.3,3,8.93,6.77,17.77,8.52,27,2.18,11.53,2.7,23.38,3.87,35.1a7.54,7.54,0,0,1-.8,3.64c-9.1-15.23-22.3-24.7-39.68-29l7.41-8.45c2,1.18,3.72,2.61,5.67,3.21a8.74,8.74,0,0,0,10.83-6c0-.09.06-.19.08-.28,1.25-4.49-1.83-9.37-6.69-10.6-8.19-2.06-18,1.6-23.12,9.29a121.54,121.54,0,0,0-9,16.58,131.07,131.07,0,0,0-10.83,72C99.23,219.09,100.12,221.25,101.15,225Z" transform="translate(-3.31 -2.33)"/><path class="cls-2" d="M303.36,126.56c9.13-11.85,20.17-19,34.57-19.63,20.29-.9,34.83,8.68,44,26.23,8.71,16.7,8.41,33.85.1,50.79-.85,1.74-2,3.35-3.41,5.75-1.39-4.39-2.49-7.91-3.61-11.44C369.52,161,355.43,149.15,340,148.83c-18.78-.39-34.93,10.5-41.38,27.89A10.6,10.6,0,0,1,296,181.1V171c.2-15.49.38-31,.68-46.48.05-2.42-1-6.1,3.07-6.09,3.85,0,3.27,3.4,3.26,6A13.91,13.91,0,0,0,303.36,126.56Zm8.43,24.63c11.38.08,28.81-13.16,31.75-24.13,1.47-5.51-1.88-9.27-7.94-8.89-11.22.71-27.11,13-30.64,23.62-2,5.87.59,9.35,6.83,9.4Z" transform="translate(-3.31 -2.33)"/><path class="cls-2" d="M262.79,421.48c-2.25-3.91-4.74-7.45-6.43-11.33-3-6.82,2-11.19,6.12-15,12.87-11.88,27.67-20.47,45.06-24.08,13.07-2.71,26.77,2.6,33.73,14,2.2,3.6,2.64,8.36,3.4,12.67.15.81-2.28,3.1-3,2.9-14.85-4.41-29.22-1.43-43.51,2.55-12.08,3.37-23.48,8.18-32.92,16.79A14.62,14.62,0,0,1,262.79,421.48Z" transform="translate(-3.31 -2.33)"/><path class="cls-2" d="M203.59,324.33c-2.15-2.59-3.54-4.46-5.13-6.16-5-5.34-5.51-9.83-1.39-16,8.14-12.25,20.15-18.55,34.17-21.09,13.41-2.43,26.88-1.41,40,1.91,10.9,2.74,18.76,9.54,23.21,20a14.8,14.8,0,0,1,.5,2.72c-6.53-1-12.66-2-18.83-2.8-16-2.11-31.77-.39-47.33,3.68C218.74,309.19,210.14,314.1,203.59,324.33Z" transform="translate(-3.31 -2.33)"/><path class="cls-2" d="M327.21,228.62c-13.53,1.25-24.69,6.32-28,25.31-3.46-7.39-2.61-13.94.25-20.54a13.17,13.17,0,0,0,1.47-5.6c-1.12-18.78,15.32-34.47,35.92-33.18C356,195.82,369.64,209.56,369,227a28.24,28.24,0,0,1-.85,5.4c-2.64,11.14-18.39,28.09-28.81,31a11.78,11.78,0,0,1-6.18.06l3.61-2.9c6.46-5.2,8-14.34,3.53-22.6-1.38-2.57-2.51-4.57,1.79-5.09,7.76-.92,11.36-4.39,11.91-11.2.6-7.68-3.17-13.84-9.86-16.1a14.67,14.67,0,0,0-17.21,6.62C323.76,217.5,324.65,222.91,327.21,228.62Z" transform="translate(-3.31 -2.33)"/><path class="cls-2" d="M302,330.88c-5.58-.65-11.16-1.12-16.67-2a96.45,96.45,0,0,0-35.6,1.12c-10.75,2.29-20.51,6.76-26.81,16.46-2.59,4-4.87,2.36-7-.07-8.53-9.5-7.1-22.62,3.39-30.24,8.5-6.18,18.55-7.76,28.63-9,13.11-1.7,26.11-1.61,38.85,2.85C297,313.53,301.89,320,302,330.88Z" transform="translate(-3.31 -2.33)"/><path class="cls-2" d="M290.85,53.26c12.58-.78,24.17-1.59,35.78-2.2,21-1.12,37.9,6.92,50.65,23.54,17,22.21,21.92,47.6,19.84,74.75l-1.93.58c-1.11-3.93-2.95-7.8-3.21-11.78-1.46-22.66-7.84-43.25-25.34-58.74-13.53-12-29.27-17.37-46.9-10.2-5,2-8.9,7-13.16,10.79-1.18,1-1.85,2.66-3.1,4.55C296.28,75,291,65.39,290.85,53.26Z" transform="translate(-3.31 -2.33)"/><path class="cls-2" d="M179.06,247.49c0-3.16-.2-6.34,0-9.49.43-5.62,4.21-8.05,9.29-5.86,3.8,1.64,7.41,3.72,11.05,5.72,14.1,7.77,28.74,5.52,43.61,2.88,12.83-2.28,23.48-8.78,34.2-15.47,7.38-4.61,11.81-2.21,11.82,6.49a100.92,100.92,0,0,1-1.33,16.38c-.24,1.48-2.57,2.82-4.21,3.79-.86.52-2.27.09-3.44.12-19,.36-38-.07-56.91,1.35-13.32,1-26.49,4.33-39.65,7-3.58.73-4.64-.27-4.68-3.44s0-6.33,0-9.49Z" transform="translate(-3.31 -2.33)"/><path class="cls-2" d="M312.64,348.6c-11.84.49-23.54-.14-34.83,1.74-12.7,2.12-24.26,7.88-32.92,18.11-4.45,5.26-5.27,5.41-10.65.68-4.2-3.7-7.39-7.85-7.39-14,0-5.84,3.91-9,7.52-12.32,7.45-6.8,16.7-9.41,26.54-9.8,13.14-.52,26.22-.21,39.17,2.82C309.09,337.94,311.62,340.25,312.64,348.6Z" transform="translate(-3.31 -2.33)"/><path class="cls-2" d="M311.9,460.16c-11.84-2.19-22.89-4-34.72-6.25a13.58,13.58,0,0,1-4-1.93c-2.55-1.51-3.33-3.54-.58-5.4,5.72-3.83,11.19-8.56,17.51-10.84a84.87,84.87,0,0,1,48.06-3c4.58,1,9,2.38,9.41,7.91.38,5.07-1.61,10-6.07,12.16a88.17,88.17,0,0,1-18.1,6,34.08,34.08,0,0,1-9,1.44C314,460.34,312.68,460.16,311.9,460.16Z" transform="translate(-3.31 -2.33)"/><path class="cls-2" d="M266.16,440.93c-2.24-4.9-.74-8.93,2.13-12.69a42.94,42.94,0,0,1,18.44-14c13.41-5.32,26.76-11.16,41.68-10.14a53.6,53.6,0,0,1,11.22,2.08c4.58,1.32,7.41,5.92,6.58,9.8-1.49,6.93-5.09,10.78-10.45,10-16.85-2.47-33.21-.38-49.07,5.27C279.72,433.68,273.24,437.52,266.16,440.93Z" transform="translate(-3.31 -2.33)"/><path class="cls-2" d="M326.75,486.51c-6.1,13.87-23.58,23-37.78,18.7a192.18,192.18,0,0,1-27.43-11c-3.15-1.5-5.74-5.07-7.56-8.28-3.43-6.06.53-12.62,7.42-12.56,3.07,0,6.58.4,9.15,1.89,15.39,9,32.32,10.2,49.48,10.57,2,0,4,.08,6,.17C326.26,486,326.5,486.34,326.75,486.51Z" transform="translate(-3.31 -2.33)"/><path class="cls-2" d="M319.52,363.23c-29.1,3.6-52.53,14.91-70.9,38.24-1.82-9.54-3.14-17.53-.11-25.34s9.64-12.51,16.8-16.15c14.15-7.2,29.15-7.24,44.14-3.64C313.15,357.22,316.18,360.86,319.52,363.23Z" transform="translate(-3.31 -2.33)"/><path class="cls-2" d="M239.65,188.86c-1.47,4.74-2.26,8.7-4,12.22a6.41,6.41,0,0,1-5.11,2.85c-18.45-1.58-36.65-4.19-51.73-16.45a27.2,27.2,0,0,1-2.54-2.38c-4.85-5.07-6-11.42-2.9-15.24,2.52-3.06,10.64-3.39,15.47-.47,5.83,3.52,11.56,7.2,17.34,10.8C216.18,186.39,227,189.7,239.65,188.86Z" transform="translate(-3.31 -2.33)"/><path class="cls-2" d="M347.65,457.66c-1.09,3.66-1.37,7.88-3.44,10.87-5.65,8.13-13.67,13.22-23.77,13.41-14.89.3-29.52-1.77-43.27-7.86a23.33,23.33,0,0,1-7.43-5.64c-3.48-3.78-.08-7,.88-9.35,13.14,1.78,25.66,4.23,38.28,5s25.67.34,37.07-7.2Z" transform="translate(-3.31 -2.33)"/><path class="cls-2" d="M240.74,184.54c-8.89,1.36-16.56-.52-23.57-3.43-7.72-3.2-14.9-7.83-22-12.29-5.72-3.57-11.16-7.32-18.59-4.41,1.48-6.63,2.69-12.69,4.28-18.65.3-1.11,2.27-2.73,3.16-2.56a29.12,29.12,0,0,1,9.25,3.06c6.55,3.9,12.55,8.76,19.24,12.37,4.68,2.52,10.07,3.87,15.28,5.27,3,.79,4.81,1.63,4.45,5.15-.59,5.81,1.33,10.43,6.91,13.08C239.59,182.36,239.81,183.12,240.74,184.54Z" transform="translate(-3.31 -2.33)"/><path class="cls-2" d="M300.48,511.74c-3.76,7-10.15,10.11-17.47,9.78-18-.83-32-9.92-44.76-21.47-3.6-3.25-3-5.49,1.49-10.48,2.8-3.1,5.56-2.77,8.17-.23C259,500.16,273,505.09,287.57,508.87,291.82,510,296.15,510.78,300.48,511.74Z" transform="translate(-3.31 -2.33)"/><path class="cls-2" d="M232.59,161c-5.26-1.88-9.46-3-13.33-4.87a104.77,104.77,0,0,1-13.88-7.77c-7.12-4.8-14.42-8.78-23.24-9.29-4.24-.24-5.3-2.36-3.48-6.37,3.45-7.58,8.53-10,16.48-7q7.92,3,15.55,6.67a7,7,0,0,1,3.38,3.79c3,9.54,7.42,17.79,17.16,22C231.54,158.32,231.63,159,232.59,161Z" transform="translate(-3.31 -2.33)"/><path class="cls-3" d="M252.63,37.79C257,39,262.26,40,267.22,41.84c6.15,2.25,7.75,8,3.81,13.29-1,1.3-3.59,2.62-4.93,2.21-9.52-2.94-19.05-2.29-28.68-1-4.77.66-9.26-2-10.16-6.63-.36-1.78,1.13-5.26,2.6-5.84,5.64-2.19,11.6-3.53,17.47-5.13C248.75,38.38,250.25,38.22,252.63,37.79Z" transform="translate(-3.31 -2.33)"/><path class="cls-2" d="M270,527.82c-8.81-1.18-17.59-2.67-26.43-3.46-10.35-.93-18.38-6.19-25.6-12.91-2-1.82-4.33-5.78-3.58-7.29,1.09-2.19,4.72-3.68,7.52-4.29,4.92-1.08,8.9.93,13.06,4.17,7.92,6.16,16.6,11.36,25.14,16.68,3.25,2,7,3.28,10.5,4.89C270.43,526.34,270.23,527.08,270,527.82Z" transform="translate(-3.31 -2.33)"/><path class="cls-1" d="M248,194.1c-4.94,7.25-6.69,15-3.28,23.55-4.51-.66-5.62-1.73-6-5.79-.56-6.62,1.14-12.72,3.68-18.84,1.88-4.52,2.61-9.55,3.54-14.4.2-1.05-.71-2.51-1.46-3.49-2.12-2.76-1.94-5.87.52-7.5,1.65-1.1,5.93-1.07,6.91.16,3,3.73,6,8,7.1,12.59,1.72,6.86,1.67,14.15,2.79,21.2.77,4.83,2.25,9.56,3.45,14.46-5.37-.27-7.43-3.72-8-8.69-.65-6.12-1.21-12.25-2.14-18.32-.32-2-1.65-3.95-2.52-5.92l-2.08.09-2.75,11.08Z" transform="translate(-3.31 -2.33)"/><path class="cls-2" d="M239.49,530.57c-6.57,3-12.16.74-17.73-.5-10.88-2.42-20.85-6.86-28.5-15.21-1.66-1.81-3.06-5.76-2.19-7.59,1.73-3.65,5.72-3.51,9.13-1.67,3.64,2,7.16,4.17,10.64,6.4,8.51,5.46,17,11,25.44,16.49Z" transform="translate(-3.31 -2.33)"/><path class="cls-2" d="M257.25,424.8C221.87,413.07,185.79,405,148,402.54c4-4.59,8.51-3.82,12.78-3.38,29,3,57.31,9,85.3,16.85C252.08,417.71,254.87,419.51,257.25,424.8Z" transform="translate(-3.31 -2.33)"/><path class="cls-2" d="M147.9,461.43l81.08,10-.19,1.48c-28.26,6.21-55,.1-81.14-10.1Z" transform="translate(-3.31 -2.33)"/><path class="cls-3" d="M261.18,64.12c5.69,3.06,9.51.17,13.81-2.32,1.75-1,5.8-.55,7.15.84,1.74,1.79,3.32,6.12,2.32,7.72-3.17,5.12-7.41,9.62-11.62,14-.7.74-3.71.25-4.89-.66a49,49,0,0,1-9.43-8.82c-1.35-1.78-1.36-5-1-7.42C257.63,66.22,259.84,65.25,261.18,64.12Z" transform="translate(-3.31 -2.33)"/><path class="cls-2" d="M263.09,199.53c0-5.93-.21-10.71.14-15.45.09-1.25,1.67-2.87,3-3.46,4.68-2.12,9.56-3.77,14.28-5.8,3.72-1.61,5.35.41,6.24,3.42,1.67,5.67-1.87,13-7.36,15.24C274.45,195.46,269.44,197.18,263.09,199.53Z" transform="translate(-3.31 -2.33)"/><path class="cls-2" d="M262.83,178.15c-2-4.23-3.77-8-5.79-12.19l30.81-13.6c.93,12.63-1.22,16.16-12.51,20.75C271.37,174.73,267.39,176.32,262.83,178.15Z" transform="translate(-3.31 -2.33)"/><path class="cls-3" d="M270.11,118.73c-5.55.61-9.72-2.79-13.51-6.58-2.49-2.47-.93-6,2.85-7.15,7.53-2.23,15.14-3.41,22.73-.54,1.1.41,2.51,2.63,2.24,3.57C282.06,116.39,279,118.57,270.11,118.73Z" transform="translate(-3.31 -2.33)"/><path class="cls-3" d="M246.9,69.49c-.09.55,0,1.86-.41,2.09-5.13,2.7-10.3,5.32-15.61,7.59-.4.17-2.53-2.41-3-4-1.06-3.71-3.07-6.14-6.87-7s-4.29-3.5-3.1-6.51c1.31-3.31,3.76-1.82,6.27-1.32,5.45,1.09,11,1.71,16.54,2.32C244.82,63.09,246.49,65.48,246.9,69.49Z" transform="translate(-3.31 -2.33)"/><path class="cls-3" d="M232.28,114.9a33.49,33.49,0,0,1-4.48,0c-9.63-1.21-13.46-7.61-10.06-16.7,1.08-2.88,4.37-3.52,6.21-.6,4.07,6.46,10,7.47,16.8,7.3,2-.05,4,1.54,6,2.37-1.4,2-2.37,5-4.32,5.94-3,1.49-6.65,1.64-10,2.35Z" transform="translate(-3.31 -2.33)"/><path class="cls-2" d="M203,530.15c-5.5-1.46-10.31-2-14.43-4-6-2.86-11.43-6.7-17-10.27-1.66-1.06-3.57-2.39-4.29-4.07-.91-2.09-.72-4.66-1-7,1.89-.18,4.14-1.11,5.61-.41,4.28,2,8.69,4.22,12.24,7.29C190.25,517,195.83,523.1,203,530.15Z" transform="translate(-3.31 -2.33)"/><path class="cls-2" d="M172.11,524.05c-11.68-2.14-25.39.08-30.9-15.23,4-6,7.33-7,13.16-2.5,6.49,5,12.36,10.88,18.5,16.37C172.62,523.15,172.36,523.6,172.11,524.05Z" transform="translate(-3.31 -2.33)"/><path class="cls-2" d="M153,435.11c4.59-1.3,8.73-.8,12.22,2.26s2,6.63.88,10.13a34.8,34.8,0,0,0-1,3.83c-1.57,6.91-4.41,8.44-11.13,6-3.57-1.31-5.26-3-2.68-7,1.31-2,1.42-5,1.7-7.52A73.24,73.24,0,0,0,153,435.11Z" transform="translate(-3.31 -2.33)"/><path class="cls-3" d="M273.94,91c.07,4.65-4,9.23-7.72,10.1-4.41,1-9.35-1.1-10.42-5.48-1.16-4.75-1.28-9.78-1.55-14.71a3.54,3.54,0,0,1,2-2.79,3.85,3.85,0,0,1,3.33,1.42c2.54,4.57,5.48,8.09,11.38,8.21C272.22,87.75,273.4,90.34,273.94,91Z" transform="translate(-3.31 -2.33)"/><path class="cls-3" d="M236.93,99.52c-7.72,0-10.55-4.69-6.33-10.81,2.71-3.93,7-7,11-9.72,3.11-2,5.44-.37,5.29,3.5a56.56,56.56,0,0,1-1.5,10.76C244.32,97.91,241.37,100.42,236.93,99.52Z" transform="translate(-3.31 -2.33)"/><path class="cls-2" d="M255.07,161.22c3.37-2,6.92-3.74,10.07-6,6.86-5,12.44-11,13-20.12.16-2.85,1.38-3.66,4.28-2.63,5.42,1.93,7.67,7.46,4.79,12.89-.76,1.44-1.71,3.16-3,3.84-9.32,4.79-18.75,9.34-28.14,14C255.7,162.5,255.38,161.86,255.07,161.22Z" transform="translate(-3.31 -2.33)"/><path class="cls-1" d="M245.21,178c-6.3,2.9-9.4,1.81-9.89-3.22-.46-4.71.12-9.55.57-14.31q.87-8.86,2.37-17.67c.19-1.16,1.72-2.1,2.63-3.13,1,1.22,2.6,2.39,2.71,3.68a112.5,112.5,0,0,1,.17,13.24c-.09,2.58,0,5.55-1.17,7.63C239.58,169.4,237,174.08,245.21,178Z" transform="translate(-3.31 -2.33)"/><path class="cls-3" d="M248.19,127.35a84.12,84.12,0,0,1-9.91-3.08c-1.08-.47-2-2.63-1.94-4,0-.82,2-1.73,3.27-2.27,3.08-1.34,6.23-2.55,9.39-3.68,1-.36,2.4-.79,3.26-.4,3.23,1.49,6.7,2.86,9.36,5.12s.89,4.84-1.73,5.73C256.33,126,252.51,126.45,248.19,127.35Z" transform="translate(-3.31 -2.33)"/><path class="cls-2" d="M182.1,453.48a21.45,21.45,0,0,1,0,3c-.41,2.73,1.65,6.83-3.92,6.71-4.35-.09-8-3-7.9-7.15a35.18,35.18,0,0,1,1.41-10.3c.73-2.1,3.16-3.61,4.82-5.38,1.89,2,4.35,3.83,5.48,6.23.9,1.9.19,4.57.19,6.9Z" transform="translate(-3.31 -2.33)"/><path class="cls-2" d="M199.22,454.58c0,.66.09,1.32.11,2,.23,7-4.05,10-10.57,7.09a3.24,3.24,0,0,1-1.61-2.59,150.54,150.54,0,0,1,2.92-15.47c.35-1.35,2.41-3.11,3.71-3.13s3.38,1.59,3.9,2.95c1.08,2.87.8,5.57,1.43,8.65Z" transform="translate(-3.31 -2.33)"/><path class="cls-3" d="M233.5,154.05c-13.9-2.19-17.17-13.21-17.64-34.15,5.26-.35,5.27-.35,5.59,4.48.17,2.48.3,5,.43,7.45.38,7.36,3.27,13.34,9.24,17.88C232.32,150.63,232.73,152.58,233.5,154.05Z" transform="translate(-3.31 -2.33)"/><path class="cls-2" d="M213.87,455.34v4c0,5.57-2.79,7.56-8.09,5.54a3.24,3.24,0,0,1-1.71-2.44c.1-4.57.61-9.13.7-13.71.06-3.21,1.21-6.2,4.31-6.06,1.68.08,3.84,3.18,4.63,5.34s.18,4.89.18,7.36Z" transform="translate(-3.31 -2.33)"/><path class="cls-2" d="M246.64,468.61c-1.08-3.55-2.66-6.64-2.81-9.8a32.5,32.5,0,0,1,1.72-10.62,5.32,5.32,0,0,1,3.88-3c1.18,0,3,1.68,3.61,3C255.58,453.84,252.66,463.88,246.64,468.61Z" transform="translate(-3.31 -2.33)"/><path class="cls-2" d="M111.14,449.33c-6.9-2.25-12.15-7.06-17.35-11.9,4.1-7.07,10.06-7.22,13.81-.43,1.94,3.52,3.46,7.28,5.17,10.93Z" transform="translate(-3.31 -2.33)"/><path class="cls-3" d="M257,148.88a104.45,104.45,0,0,0,2.59-10.17c.34-2.19-.15-4.51-.27-6.78-.08-1.62-.75-4.34-.15-4.66a17.52,17.52,0,0,1,7-1.72c.33,0,1.23,3.09,1.24,4.75,0,7.34-.8,14.39-8.48,18.16A9.11,9.11,0,0,1,257,148.88Z" transform="translate(-3.31 -2.33)"/><path class="cls-2" d="M123.88,505.28c-.14-3.92,2.25-6,5.07-3.47,4.25,3.87,7.43,8.94,10.9,13.62.18.25-1,2.17-1.76,2.33C132.18,519,123.77,511.53,123.88,505.28Z" transform="translate(-3.31 -2.33)"/><path class="cls-3" d="M231.59,146.5c-2.08-2.24-4-3.39-4.41-4.92-1.35-5.73-2.29-11.58-3.07-17.42-.14-1,1.26-3.22,1.87-3.2a7,7,0,0,1,4.11,1.92,5.7,5.7,0,0,1,1.44,3.62C231.67,132.57,231.59,138.64,231.59,146.5Z" transform="translate(-3.31 -2.33)"/><path class="cls-3" d="M269.68,125.11h4.58c.26.5.57.82.52,1.06-1.55,6.75-2.78,13.6-4.85,20.19-1.54,4.9-5.56,7.78-10.71,8.57-1,.15-2.17-.82-3.26-1.28.62-.83,1.09-2.2,1.88-2.43,9.65-2.7,10.85-10.67,11.8-18.74A67.1,67.1,0,0,0,269.68,125.11Z" transform="translate(-3.31 -2.33)"/><path class="cls-3" d="M298,102c-.88,5.64-3.74,10.06-8.27,11.86-2.18.86-4.42.84-3.91-2.2a43.17,43.17,0,0,1,3.34-11.33c.86-1.8,3.49-2.77,5.32-4.11Z" transform="translate(-3.31 -2.33)"/><path class="cls-2" d="M139.47,431.35c7.77,1.44,11.21,7.41,8.08,14.47a7,7,0,0,1-3.83,3.38c-.79.27-2.49-1.26-3.38-2.31C138.44,444.63,138,434.29,139.47,431.35Z" transform="translate(-3.31 -2.33)"/><path class="cls-2" d="M225.73,465.8c-2.21-1.1-4.38-1.53-5.48-2.85-3.14-3.81-1.54-13.81,2.46-16.6a5.28,5.28,0,0,1,3.47-.88c.47.08.78,1.92.92,3a13.7,13.7,0,0,1-.15,3C226.58,455.83,226.2,460.24,225.73,465.8Z" transform="translate(-3.31 -2.33)"/><path class="cls-2" d="M239.05,451c-.33,4.75-.61,9.52-1.05,14.27-.08.82-.91,2.3-1.24,2.26-1.2-.15-3.15-.6-3.34-1.33a61.27,61.27,0,0,1-1.95-10.92,9.47,9.47,0,0,1,1.44-5.18,36.11,36.11,0,0,1,4.15-5l1.91,5.31Z" transform="translate(-3.31 -2.33)"/><path class="cls-2" d="M118.48,512.84c-3.68-2.58-7.76-4.77-10.87-7.91-1.32-1.35-.63-4.69-.86-7.12,2.45.23,5.63-.44,7.22.85a17,17,0,0,1,6,12.77Z" transform="translate(-3.31 -2.33)"/><path class="cls-3" d="M206.1,95.87c1.43-2.15,2.34-4.93,3.64-5.12,1.48-.22,4.55,1.68,4.74,3,.63,4.24.3,8.63.12,13,0,.09-3.54.57-3.82,0C209,103.34,207.69,99.72,206.1,95.87Z" transform="translate(-3.31 -2.33)"/><path class="cls-2" d="M369.05,451c3.32,7.28,1.78,13.12-.49,18.64-.66,1.61-3.53,2.31-5.39,3.43-.35-1.84-1.3-3.82-.92-5.5a84.36,84.36,0,0,1,3.65-11.32C366.48,454.65,367.62,453.29,369.05,451Z" transform="translate(-3.31 -2.33)"/><path class="cls-1" d="M250.84,151.49a87.82,87.82,0,0,1-.12,9.46c-.1,1-1.61,1.89-2.47,2.84-.87-1-2.46-1.93-2.49-2.93-.17-6-.13-12,.23-17.94.07-1.18,1.81-2.25,2.79-3.38.68,1.16,1.84,2.27,2,3.48A79.77,79.77,0,0,1,250.84,151.49Z" transform="translate(-3.31 -2.33)"/><path class="cls-2" d="M124.52,441.46c-.63,1.75-.75,3.39-1.43,3.67-1,.42-3,.33-3.55-.36A68.81,68.81,0,0,1,113,434.54c-.47-.93.75-3.88,1.54-4,1.69-.32,4.49,0,5.25,1.12C121.86,434.71,123.09,438.34,124.52,441.46Z" transform="translate(-3.31 -2.33)"/><path class="cls-2" d="M133.35,447.86c-3.59-.34-4.47-1.82-4.62-5.18-.21-4.42-1.79-8.77-2.83-13.39,2.81-.61,5,.48,6.38,3.36C134.54,437.57,136.53,442.54,133.35,447.86Z" transform="translate(-3.31 -2.33)"/><path class="cls-2" d="M256.14,465.61c1.39-6.44,2.56-11.89,3.74-17.34l1.44-.72c1.57,2.34,4.27,4.59,4.48,7.05C266.3,460.39,262.07,463.22,256.14,465.61Z" transform="translate(-3.31 -2.33)"/><path class="cls-2" d="M347.31,475.39c3.78-7.44,2.75-16.19,9.92-21.84C359.27,461.37,353.54,474.61,347.31,475.39Z" transform="translate(-3.31 -2.33)"/><path class="cls-2" d="M368.81,435c.39-3,.45-6.07,1.27-8.94,1-3.38,4.28-4.53,6.64-2.75,1.43,1.08,2,5.36,1,7.12-1.36,2.43-4.54,3.84-7,5.69Z" transform="translate(-3.31 -2.33)"/><path class="cls-2" d="M355.23,437.82c-7.85-5.94-7.81-10.27,0-20.28Z" transform="translate(-3.31 -2.33)"/><path class="cls-2" d="M99.44,506.92c-2.75-2-5.92-3.66-8-6.19-.94-1.12.22-4,.43-6.1,2.09.35,5.18,0,6.06,1.21,1.89,2.61,2.63,6,3.84,9.14Z" transform="translate(-3.31 -2.33)"/><path class="cls-2" d="M247.79,194.28l4-7.66,1.51.24c.71,4.53,1.42,9.06,2.12,13.49l-9.49,3.87L248,194.09Z" transform="translate(-3.31 -2.33)"/><path class="cls-2" d="M387.26,464.92c-.32-6.9,2.25-12.59,6.19-18.22C397.38,453.92,394,463.7,387.26,464.92Z" transform="translate(-3.31 -2.33)"/><path class="cls-2" d="M374.14,468.91c3.4-6.56,3-14.6,10-19.33C385.86,456.41,380,468,374.14,468.91Z" transform="translate(-3.31 -2.33)"/><path class="cls-2" d="M84.78,501.57c-5.36.7-9.13-3.93-10.62-13.05C79.48,487.36,84,492.92,84.78,501.57Z" transform="translate(-3.31 -2.33)"/><path class="cls-2" d="M51.87,476.82l7.55,13.58c-9.14.18-11.93-4.52-9.19-12.9Z" transform="translate(-3.31 -2.33)"/><path class="cls-2" d="M38.4,469.13c4.59,2.56,6.66,9.34,5,15.54C38.72,482.53,36.82,476.94,38.4,469.13Z" transform="translate(-3.31 -2.33)"/><path class="cls-2" d="M68.59,496.13c-6.54-3.15-5.28-9.7-8-14.67C66.22,481.64,69.12,487.29,68.59,496.13Z" transform="translate(-3.31 -2.33)"/><path class="cls-2" d="M276.88,97.36c.63-5.4,1.26-10.8,2-17.08,5.13,4.14,4.32,7.48,0,17.14Z" transform="translate(-3.31 -2.33)"/><path class="cls-2" d="M221.05,75.43c3,6,5.61,11.23,1.29,17.7C221,87.22,216.6,82.24,221.05,75.43Z" transform="translate(-3.31 -2.33)"/><path class="cls-2" d="M286,94V76.8C291.13,82.87,290.79,89,286,94Z" transform="translate(-3.31 -2.33)"/><path class="cls-2" d="M360.47,438.1c.92-5.59-1.33-11.92,3.73-16.57C363.11,427.09,365.36,433.41,360.47,438.1Z" transform="translate(-3.31 -2.33)"/><path class="cls-2" d="M215.3,89.21c-4.66-6.26-4.91-10.93,0-17.74Z" transform="translate(-3.31 -2.33)"/><path class="cls-2" d="M23.56,464.78c-.7-4.1-1.4-8.2-2.27-13.27,5.25,3.28,5.8,5.69,4,13Z" transform="translate(-3.31 -2.33)"/><path class="cls-2" d="M402.94,445.47c-.06,4.26,1.81,9-4.14,12.77.77-5,1.4-9.09,2-13.19Z" transform="translate(-3.31 -2.33)"/><path class="cls-2" d="M31.88,465.16q1.43,5.18,2.84,10.35l-2,.57c-3.47-2.71-2.15-6.84-2.27-10.54Z" transform="translate(-3.31 -2.33)"/><path class="cls-2" d="M412.63,438c-.68,3.58-1.26,6.62-2,10.59C406.45,442.53,406.83,440.76,412.63,438Z" transform="translate(-3.31 -2.33)"/><path class="cls-4" d="M98.18,343.54c-.16,5.66-7.11,14.78-12.47,16.21-3.38.91-5-1-4.38-3.95a22.1,22.1,0,0,1,11.4-15.49C96.21,338.41,98.28,339.85,98.18,343.54Z" transform="translate(-3.31 -2.33)"/><path class="cls-4" d="M402.19,347.42c1.83,7-4.11,17.44-10.68,19.36C389.61,359.73,394.94,349.82,402.19,347.42Z" transform="translate(-3.31 -2.33)"/><path class="cls-4" d="M118.74,351.38c5.55,5.19,2.55,11-7.7,15.76C113.87,361.35,116.23,356.53,118.74,351.38Z" transform="translate(-3.31 -2.33)"/><path class="cls-4" d="M165.16,363.72c.5-6.14,2.35-8.33,7.46-9.3C172.41,359.23,169.85,361.8,165.16,363.72Z" transform="translate(-3.31 -2.33)"/></g></svg>